<?xml version="1.0" encoding="utf-8"?>
<!-- Generator: Adobe Illustrator 16.0.0, SVG Export Plug-In . SVG Version: 6.00 Build 0)  -->
<!DOCTYPE svg PUBLIC "-//W3C//DTD SVG 1.1//EN" "http://www.w3.org/Graphics/SVG/1.1/DTD/svg11.dtd">
<svg version="1.1" id="Layer_1" xmlns="http://www.w3.org/2000/svg" xmlns:xlink="http://www.w3.org/1999/xlink" x="0px" y="0px"
	 width="265px" height="148px" viewBox="0 0 265 148" enable-background="new 0 0 265 148" xml:space="preserve">
<polyline fill="#F8B21C" points="-0.436,0.194 265.095,0.194 265.095,52.431 -0.436,111.559 "/>
<g>
	<defs>
		<rect id="SVGID_1_" x="-1" y="0.271" width="223.926" height="149.285"/>
	</defs>
	<clipPath id="SVGID_2_">
		<use xlink:href="#SVGID_1_"  overflow="visible"/>
	</clipPath>
	<polygon clip-path="url(#SVGID_2_)" fill="#FFB717" points="-34.609,296.209 230.609,173.298 -34.609,173.298 	"/>
	<g clip-path="url(#SVGID_2_)">
		<polygon points="189.086,138.66 186.795,136.747 184.504,138.66 182.214,136.747 179.924,138.66 177.325,136.491 177.938,135.758 
			179.924,137.415 182.214,135.502 184.504,137.415 186.795,135.502 189.086,137.415 191.376,135.502 193.668,137.415 
			195.959,135.502 198.251,137.415 200.238,135.758 200.85,136.491 198.251,138.66 195.959,136.747 193.668,138.66 191.376,136.747 
					"/>
	</g>
	<g clip-path="url(#SVGID_2_)">
		<polygon points="26.718,19.132 24.427,17.219 22.136,19.132 19.845,17.219 17.555,19.132 14.957,16.962 15.57,16.228 
			17.555,17.886 19.845,15.973 22.136,17.886 24.427,15.973 26.718,17.886 29.009,15.973 31.3,17.886 33.591,15.973 35.883,17.886 
			37.87,16.228 38.483,16.962 35.883,19.132 33.591,17.219 31.3,19.132 29.009,17.219 		"/>
	</g>
	<circle clip-path="url(#SVGID_2_)" cx="165.111" cy="148.436" r="2.545"/>
	<circle clip-path="url(#SVGID_2_)" cx="210.075" cy="111.636" r="2.545"/>
	<circle clip-path="url(#SVGID_2_)" cx="14.019" cy="98.087" r="0.66"/>
	<circle clip-path="url(#SVGID_2_)" cx="107.964" cy="12.084" r="0.66"/>
	<circle clip-path="url(#SVGID_2_)" fill="#FFFFFF" cx="250.468" cy="70.065" r="0.66"/>
	<circle clip-path="url(#SVGID_2_)" cx="17.225" cy="32.759" r="0.66"/>
	<circle clip-path="url(#SVGID_2_)" cx="102.873" cy="16.516" r="1.283"/>
	<g clip-path="url(#SVGID_2_)">
		<defs>
			<rect id="SVGID_3_" x="64.631" y="-3.325" width="8.825" height="8.826"/>
		</defs>
		<clipPath id="SVGID_4_">
			<use xlink:href="#SVGID_3_"  overflow="visible"/>
		</clipPath>
		<g clip-path="url(#SVGID_4_)">
			<line fill="none" stroke="#000000" stroke-miterlimit="10" x1="64.99" y1="-3.494" x2="54.863" y2="6.632"/>
			<line fill="none" stroke="#000000" stroke-miterlimit="10" x1="67.083" y1="-3.494" x2="56.957" y2="6.632"/>
			<line fill="none" stroke="#000000" stroke-miterlimit="10" x1="69.175" y1="-3.494" x2="59.05" y2="6.632"/>
			<line fill="none" stroke="#000000" stroke-miterlimit="10" x1="71.269" y1="-3.494" x2="61.143" y2="6.632"/>
			<line fill="none" stroke="#000000" stroke-miterlimit="10" x1="73.362" y1="-3.494" x2="63.236" y2="6.632"/>
			<line fill="none" stroke="#000000" stroke-miterlimit="10" x1="75.455" y1="-3.494" x2="65.329" y2="6.632"/>
			<line fill="none" stroke="#000000" stroke-miterlimit="10" x1="77.548" y1="-3.494" x2="67.422" y2="6.632"/>
			<line fill="none" stroke="#000000" stroke-miterlimit="10" x1="79.642" y1="-3.494" x2="69.515" y2="6.632"/>
			<line fill="none" stroke="#000000" stroke-miterlimit="10" x1="81.734" y1="-3.494" x2="71.608" y2="6.632"/>
		</g>
	</g>
	<g clip-path="url(#SVGID_2_)">
		<defs>
			<rect id="SVGID_5_" x="246.717" y="35.58" width="8.824" height="8.826"/>
		</defs>
		<clipPath id="SVGID_6_">
			<use xlink:href="#SVGID_5_"  overflow="visible"/>
		</clipPath>
		<g clip-path="url(#SVGID_6_)">
			<line fill="none" stroke="#FFFFFF" stroke-miterlimit="10" x1="247.074" y1="35.411" x2="236.948" y2="45.536"/>
			<line fill="none" stroke="#FFFFFF" stroke-miterlimit="10" x1="249.167" y1="35.411" x2="239.041" y2="45.536"/>
			<line fill="none" stroke="#FFFFFF" stroke-miterlimit="10" x1="251.26" y1="35.411" x2="241.135" y2="45.536"/>
			<line fill="none" stroke="#FFFFFF" stroke-miterlimit="10" x1="253.353" y1="35.411" x2="243.228" y2="45.536"/>
			<line fill="none" stroke="#FFFFFF" stroke-miterlimit="10" x1="255.446" y1="35.411" x2="245.32" y2="45.536"/>
			<line fill="none" stroke="#FFFFFF" stroke-miterlimit="10" x1="257.541" y1="35.411" x2="247.413" y2="45.536"/>
			<line fill="none" stroke="#FFFFFF" stroke-miterlimit="10" x1="259.633" y1="35.411" x2="249.506" y2="45.536"/>
			<line fill="none" stroke="#FFFFFF" stroke-miterlimit="10" x1="261.726" y1="35.411" x2="251.6" y2="45.536"/>
			<line fill="none" stroke="#FFFFFF" stroke-miterlimit="10" x1="263.819" y1="35.411" x2="253.693" y2="45.536"/>
		</g>
	</g>
</g>
<polygon fill="#2F53BA" points="157.771,0.194 265.718,0.194 265.718,126.073 "/>
<g>
	<path fill="#F1F2F2" d="M21.283,22.72h4.508l3.449,21.176h-3.328l-0.605-4.205v0.061h-3.782l-0.605,4.145h-3.086L21.283,22.72z
		 M24.913,36.878l-1.482-10.467H23.37l-1.452,10.467H24.913z"/>
	<path fill="#F1F2F2" d="M30.842,22.72h5.083c1.653,0,2.894,0.444,3.721,1.331c0.827,0.888,1.24,2.188,1.24,3.902v10.709
		c0,1.714-0.414,3.015-1.24,3.902c-0.827,0.888-2.067,1.331-3.721,1.331h-5.083V22.72z M35.864,40.871
		c0.544,0,0.963-0.161,1.255-0.484c0.292-0.322,0.438-0.847,0.438-1.573V27.803c0-0.726-0.146-1.25-0.438-1.573
		c-0.292-0.322-0.711-0.484-1.255-0.484h-1.694v15.125H35.864z"/>
	<path fill="#F1F2F2" d="M42.247,22.72h3.358l2.178,16.427h0.061l2.178-16.427h3.056L49.87,43.896h-4.417L42.247,22.72z"/>
	<path fill="#F1F2F2" d="M57.251,22.72h4.508l3.449,21.176H61.88l-0.605-4.205v0.061h-3.782l-0.605,4.145h-3.086L57.251,22.72z
		 M60.881,36.878l-1.482-10.467h-0.061l-1.452,10.467H60.881z"/>
	<path fill="#F1F2F2" d="M66.81,22.72h4.175l3.237,12.675h0.061V22.72h2.965v21.176h-3.418l-3.993-15.458h-0.061v15.458H66.81V22.72
		z"/>
	<path fill="#F1F2F2" d="M80.771,42.838c-0.837-0.908-1.256-2.188-1.256-3.842V27.621c0-1.653,0.418-2.935,1.256-3.842
		c0.836-0.907,2.052-1.361,3.645-1.361s2.809,0.454,3.646,1.361c0.836,0.908,1.255,2.189,1.255,3.842v2.239h-3.146v-2.451
		c0-1.311-0.555-1.966-1.664-1.966c-1.109,0-1.664,0.656-1.664,1.966v11.829c0,1.291,0.554,1.936,1.664,1.936
		c1.109,0,1.664-0.645,1.664-1.936v-3.237h3.146v2.995c0,1.654-0.419,2.935-1.255,3.842c-0.837,0.907-2.052,1.361-3.646,1.361
		S81.608,43.745,80.771,42.838z"/>
	<path fill="#F1F2F2" d="M91.313,22.72h9.076v3.025h-5.748v5.596h4.568v3.025h-4.568v6.504h5.748v3.025h-9.076V22.72z"/>
</g>
<g>
	<path d="M15.767,77.681v-4.016c0.391,0.107,0.831,0.161,1.32,0.161c0.807,0,1.406-0.221,1.797-0.663
		c0.391-0.442,0.587-1.118,0.587-2.028V49.567h4.035v21.447c0,2.303-0.483,4.017-1.449,5.141c-0.966,1.125-2.439,1.688-4.42,1.688
		C16.904,77.842,16.28,77.787,15.767,77.681z"/>
	<path d="M29.522,49.567h5.465l4.182,28.114h-4.035l-0.733-5.583v0.08h-4.585l-0.734,5.502H25.34L29.522,49.567z M33.924,68.363
		l-1.797-13.896h-0.073l-1.761,13.896H33.924z"/>
	<path d="M40.049,49.567h4.072l2.641,21.808h0.073l2.641-21.808h3.705l-3.888,28.114h-5.355L40.049,49.567z"/>
	<path d="M58.243,49.567h5.465l4.182,28.114h-4.035l-0.733-5.583v0.08h-4.585l-0.734,5.502h-3.742L58.243,49.567z M62.645,68.363
		l-1.797-13.896h-0.073l-1.761,13.896H62.645z"/>
	<path d="M70.641,76.255c-1.003-1.218-1.504-2.965-1.504-5.241v-1.606h3.815v1.928c0,1.821,0.697,2.731,2.091,2.731
		c0.684,0,1.204-0.221,1.559-0.663s0.532-1.158,0.532-2.149c0-1.178-0.245-2.215-0.734-3.112c-0.489-0.897-1.394-1.974-2.714-3.233
		c-1.663-1.606-2.824-3.059-3.485-4.357c-0.66-1.298-0.99-2.764-0.99-4.398c0-2.222,0.514-3.942,1.541-5.161
		c1.027-1.218,2.519-1.828,4.475-1.828c1.932,0,3.393,0.609,4.384,1.828c0.99,1.219,1.485,2.966,1.485,5.241v1.165H77.28v-1.446
		c0-0.964-0.171-1.667-0.514-2.108c-0.342-0.442-0.843-0.663-1.504-0.663c-1.345,0-2.017,0.897-2.017,2.691
		c0,1.018,0.25,1.968,0.752,2.852c0.501,0.884,1.412,1.955,2.732,3.213c1.688,1.606,2.849,3.066,3.485,4.377
		c0.636,1.313,0.954,2.852,0.954,4.619c0,2.303-0.52,4.071-1.559,5.301c-1.04,1.232-2.55,1.848-4.53,1.848
		C73.122,78.082,71.643,77.474,70.641,76.255z"/>
	<path d="M84.745,76.275c-1.015-1.205-1.522-2.905-1.522-5.101V56.073c0-2.195,0.507-3.896,1.522-5.101
		c1.014-1.205,2.488-1.808,4.42-1.808c1.932,0,3.405,0.603,4.42,1.808c1.014,1.205,1.522,2.905,1.522,5.101v2.972h-3.815v-3.253
		c0-1.74-0.673-2.611-2.017-2.611c-1.345,0-2.018,0.871-2.018,2.611v15.704c0,1.714,0.672,2.57,2.018,2.57
		c1.344,0,2.017-0.856,2.017-2.57v-4.297h3.815v3.976c0,2.196-0.508,3.896-1.522,5.101c-1.015,1.204-2.489,1.807-4.42,1.807
		C87.232,78.082,85.759,77.479,84.745,76.275z"/>
	<path d="M97.528,49.567h5.979c2.078,0,3.595,0.529,4.549,1.586c0.954,1.058,1.43,2.685,1.43,4.879v1.727
		c0,2.919-0.88,4.767-2.641,5.542v0.081c0.978,0.321,1.669,0.978,2.073,1.968c0.403,0.991,0.605,2.316,0.605,3.976v4.94
		c0,0.804,0.024,1.453,0.074,1.948c0.049,0.496,0.171,0.983,0.367,1.466h-4.108c-0.146-0.455-0.245-0.884-0.293-1.285
		c-0.049-0.401-0.073-1.125-0.073-2.169v-5.141c0-1.285-0.19-2.182-0.569-2.691c-0.379-0.508-1.033-0.763-1.962-0.763h-1.394v12.049
		h-4.035V49.567z M103.03,61.616c0.807,0,1.412-0.228,1.815-0.683c0.404-0.455,0.605-1.218,0.605-2.289v-2.169
		c0-1.017-0.165-1.753-0.495-2.209c-0.331-0.455-0.85-0.683-1.559-0.683h-1.834v8.033H103.03z"/>
	<path d="M112.31,49.567h4.035v28.114h-4.035V49.567z"/>
	<path d="M119.353,49.567h5.942c2.005,0,3.509,0.589,4.512,1.767c1.002,1.178,1.504,2.905,1.504,5.181v2.771
		c0,2.276-0.501,4.003-1.504,5.181c-1.003,1.178-2.507,1.767-4.512,1.767h-1.907v11.446h-4.035V49.567z M125.295,62.218
		c0.66,0,1.155-0.201,1.486-0.602c0.33-0.402,0.495-1.084,0.495-2.048v-3.333c0-0.964-0.165-1.647-0.495-2.048
		c-0.331-0.402-0.826-0.603-1.486-0.603h-1.907v8.635H125.295z"/>
	<path d="M136.665,53.583h-4.218v-4.016h12.472v4.016H140.7v24.098h-4.035V53.583z"/>
</g>
<rect x="222.568" y="10.358" fill="#F8B21C" width="33.192" height="33.192"/>
<g>
	<path fill="#2F53BA" d="M233.286,35.352c0.319,0.823,0.654,1.434,1.007,1.834s0.731,0.601,1.138,0.601
		c0.479,0,0.819-0.189,1.021-0.568c0.203-0.378,0.305-1.038,0.305-1.977V23.504h3.51v12.033c0,1.929-0.352,3.358-1.057,4.286
		c-0.705,0.928-1.795,1.393-3.271,1.393c-1.256,0-2.332-0.355-3.226-1.065c-0.895-0.709-1.555-1.734-1.979-3.074L233.286,35.352z"/>
	<path fill="#2F53BA" d="M248.95,30.907c1.157,0.612,1.983,1.287,2.479,2.026s0.743,1.658,0.743,2.757
		c0,1.638-0.473,2.965-1.416,3.98c-0.944,1.016-2.182,1.523-3.71,1.523c-0.958,0-1.837-0.206-2.639-0.617
		c-0.801-0.411-1.554-1.042-2.259-1.894l1.716-2.435c0.465,0.597,0.959,1.052,1.48,1.365c0.522,0.313,1.049,0.47,1.581,0.47
		c0.592,0,1.07-0.191,1.437-0.573c0.365-0.382,0.548-0.883,0.548-1.501c0-0.437-0.107-0.801-0.324-1.092
		c-0.216-0.291-0.646-0.615-1.291-0.972l-1.655-0.917c-1.15-0.641-1.965-1.325-2.443-2.053c-0.479-0.728-0.719-1.63-0.719-2.708
		c0-1.47,0.461-2.695,1.382-3.674c0.921-0.979,2.079-1.468,3.476-1.468c0.978,0,1.845,0.2,2.603,0.601s1.409,1.004,1.955,1.813
		l-1.965,2.195c-0.393-0.517-0.791-0.896-1.197-1.136c-0.405-0.24-0.851-0.36-1.336-0.36c-0.472,0-0.862,0.166-1.172,0.497
		c-0.31,0.331-0.464,0.751-0.464,1.261c0,0.422,0.113,0.794,0.339,1.114c0.227,0.321,0.572,0.608,1.037,0.863L248.95,30.907z"/>
</g>
<g>
	<rect x="258.358" y="60.083" fill="none" stroke="#FFFFFF" stroke-miterlimit="10" width="2.783" height="2.784"/>
	<rect x="257.866" y="65.243" fill="#FFB717" width="3.768" height="3.768"/>
	<rect x="258.347" y="71.375" fill="none" stroke="#FFFFFF" stroke-miterlimit="10" width="2.807" height="2.806"/>
	<rect x="257.866" y="76.545" fill="#FFB717" width="3.768" height="3.768"/>
</g>
<polygon fill="#F8B21C" points="195.767,88.823 201.684,94.705 211.817,90.734 203.568,77.07 "/>
<g>
	<g>
		<path d="M201.314,92.593c-0.03,0-0.063-0.01-0.086-0.03c-0.039-0.031-0.062-0.079-0.056-0.128l2.113-18.123
			c0.007-0.06,0.051-0.108,0.11-0.122c0.06-0.012,0.12,0.013,0.151,0.064l8.601,13.93c0.022,0.036,0.026,0.08,0.013,0.121
			c-0.013,0.038-0.043,0.07-0.083,0.087l-10.712,4.19C201.35,92.589,201.332,92.593,201.314,92.593z M203.521,74.75l-2.039,17.482
			l10.335-4.042L203.521,74.75z"/>
	</g>
	<g>
		<path d="M201.314,92.593c-0.034,0-0.068-0.012-0.096-0.039l-0.25-0.227c-0.058-0.054-0.062-0.143-0.01-0.202
			c0.054-0.056,0.145-0.06,0.201-0.008l0.25,0.229c0.058,0.053,0.062,0.142,0.009,0.2C201.392,92.576,201.354,92.593,201.314,92.593
			z M200.471,91.82c-0.035,0-0.068-0.013-0.096-0.036l-0.594-0.544c-0.058-0.053-0.062-0.141-0.01-0.2
			c0.054-0.059,0.143-0.061,0.2-0.008l0.595,0.541c0.058,0.054,0.062,0.144,0.009,0.202C200.548,91.806,200.509,91.82,200.471,91.82
			z M199.282,90.734c-0.034,0-0.068-0.012-0.096-0.035l-0.594-0.545c-0.059-0.052-0.063-0.144-0.009-0.199
			c0.053-0.059,0.143-0.063,0.201-0.011l0.593,0.544c0.059,0.053,0.063,0.144,0.009,0.2
			C199.359,90.719,199.321,90.734,199.282,90.734z M198.094,89.649c-0.033,0-0.068-0.013-0.095-0.039l-0.595-0.541
			c-0.058-0.052-0.062-0.144-0.009-0.202c0.053-0.057,0.144-0.061,0.2-0.008l0.595,0.543c0.057,0.054,0.061,0.143,0.009,0.2
			C198.171,89.633,198.132,89.649,198.094,89.649z M196.907,88.562c-0.035,0-0.069-0.012-0.097-0.036l-0.594-0.543
			c-0.059-0.054-0.063-0.143-0.01-0.2c0.054-0.058,0.143-0.062,0.201-0.008l0.594,0.541c0.059,0.054,0.063,0.144,0.009,0.202
			C196.983,88.548,196.945,88.562,196.907,88.562z M212.027,88.402c-0.012,0-0.025-0.002-0.039-0.006l-0.774-0.219
			c-0.075-0.021-0.119-0.099-0.099-0.174c0.021-0.077,0.101-0.119,0.177-0.099l0.773,0.218c0.076,0.021,0.119,0.1,0.1,0.175
			C212.146,88.359,212.089,88.402,212.027,88.402z M210.478,87.965c-0.013,0-0.025,0-0.039-0.004l-0.774-0.218
			c-0.076-0.021-0.119-0.1-0.098-0.176c0.021-0.074,0.1-0.12,0.175-0.097l0.774,0.216c0.075,0.022,0.119,0.102,0.099,0.176
			C210.596,87.925,210.539,87.965,210.478,87.965z M208.929,87.531c-0.014,0-0.026-0.003-0.038-0.007l-0.776-0.216
			c-0.075-0.022-0.12-0.102-0.098-0.176c0.021-0.074,0.1-0.119,0.175-0.1l0.774,0.22c0.076,0.021,0.12,0.099,0.099,0.175
			C209.047,87.491,208.99,87.531,208.929,87.531z M195.718,87.477c-0.034,0-0.069-0.012-0.096-0.037l-0.584-0.535
			c-0.052-0.046-0.062-0.123-0.022-0.182c0.043-0.066,0.135-0.089,0.2-0.047c0.021,0.015,0.035,0.03,0.047,0.051l0.552,0.503
			c0.058,0.053,0.062,0.145,0.009,0.2C195.795,87.463,195.756,87.477,195.718,87.477z M207.378,87.097
			c-0.013,0-0.025-0.002-0.038-0.006l-0.775-0.219c-0.074-0.02-0.119-0.099-0.099-0.174c0.022-0.076,0.101-0.119,0.176-0.1
			l0.774,0.219c0.075,0.021,0.12,0.099,0.099,0.174C207.497,87.055,207.441,87.097,207.378,87.097z M205.828,86.66
			c-0.013,0-0.024-0.002-0.038-0.004l-0.775-0.219c-0.075-0.02-0.119-0.099-0.098-0.176c0.021-0.075,0.1-0.117,0.175-0.098
			l0.775,0.217c0.074,0.021,0.119,0.101,0.098,0.176C205.947,86.62,205.891,86.66,205.828,86.66z M195.587,86.262
			c-0.027,0-0.056-0.008-0.079-0.024c-0.066-0.043-0.083-0.131-0.039-0.196l0.445-0.67c0.042-0.065,0.131-0.083,0.196-0.039
			c0.066,0.043,0.084,0.131,0.04,0.196l-0.445,0.67C195.678,86.239,195.632,86.262,195.587,86.262z M204.278,86.226
			c-0.013,0-0.025-0.002-0.038-0.006l-0.775-0.217c-0.074-0.022-0.118-0.101-0.097-0.176s0.099-0.119,0.174-0.099l0.775,0.218
			c0.075,0.022,0.12,0.099,0.098,0.176C204.397,86.185,204.341,86.226,204.278,86.226z M203.428,85.261
			c-0.079,0-0.143-0.064-0.143-0.142v-0.807c0-0.076,0.063-0.141,0.143-0.141c0.077,0,0.141,0.064,0.141,0.141v0.807
			C203.568,85.196,203.505,85.261,203.428,85.261z M196.477,84.921c-0.026,0-0.053-0.008-0.077-0.023
			c-0.065-0.042-0.083-0.131-0.041-0.196l0.446-0.671c0.044-0.064,0.133-0.083,0.196-0.039c0.066,0.043,0.083,0.132,0.041,0.196
			l-0.445,0.672C196.567,84.899,196.523,84.921,196.477,84.921z M203.428,83.652c-0.079,0-0.143-0.065-0.143-0.144v-0.805
			c0-0.079,0.063-0.141,0.143-0.141c0.077,0,0.141,0.062,0.141,0.141v0.805C203.568,83.587,203.505,83.652,203.428,83.652z
			 M197.368,83.581c-0.025,0-0.055-0.008-0.078-0.024c-0.064-0.042-0.083-0.131-0.04-0.196l0.445-0.67
			c0.045-0.065,0.132-0.083,0.197-0.039c0.066,0.043,0.083,0.132,0.04,0.196l-0.446,0.671
			C197.46,83.559,197.414,83.581,197.368,83.581z M198.261,82.242c-0.027,0-0.055-0.01-0.078-0.025
			c-0.066-0.044-0.083-0.131-0.041-0.196l0.446-0.671c0.044-0.064,0.132-0.083,0.197-0.04c0.064,0.044,0.082,0.134,0.04,0.197
			l-0.445,0.67C198.351,82.219,198.307,82.242,198.261,82.242z M203.428,82.042c-0.079,0-0.143-0.063-0.143-0.143v-0.804
			c0-0.079,0.063-0.143,0.143-0.143c0.077,0,0.141,0.063,0.141,0.143v0.804C203.568,81.979,203.505,82.042,203.428,82.042z
			 M199.151,80.901c-0.027,0-0.055-0.008-0.078-0.025c-0.065-0.044-0.082-0.131-0.04-0.196l0.445-0.67
			c0.044-0.065,0.131-0.083,0.197-0.04c0.066,0.044,0.083,0.131,0.041,0.198l-0.447,0.668
			C199.242,80.879,199.198,80.901,199.151,80.901z M203.428,80.432c-0.079,0-0.143-0.063-0.143-0.141v-0.807
			c0-0.077,0.063-0.142,0.143-0.142c0.077,0,0.141,0.064,0.141,0.142v0.807C203.568,80.368,203.505,80.432,203.428,80.432z
			 M200.043,79.562c-0.027,0-0.054-0.009-0.078-0.024c-0.066-0.045-0.084-0.132-0.041-0.198l0.446-0.67
			c0.043-0.065,0.133-0.083,0.197-0.04c0.065,0.044,0.082,0.132,0.039,0.198l-0.445,0.669
			C200.133,79.539,200.089,79.562,200.043,79.562z M203.428,78.823c-0.079,0-0.143-0.064-0.143-0.144v-0.804
			c0-0.079,0.063-0.143,0.143-0.143c0.077,0,0.141,0.063,0.141,0.143v0.804C203.568,78.759,203.505,78.823,203.428,78.823z
			 M200.934,78.219c-0.026,0-0.054-0.006-0.078-0.021c-0.064-0.046-0.083-0.133-0.04-0.198l0.445-0.67
			c0.045-0.066,0.134-0.082,0.197-0.04c0.066,0.044,0.083,0.131,0.04,0.198l-0.446,0.669
			C201.025,78.197,200.979,78.219,200.934,78.219z M203.428,77.212c-0.079,0-0.143-0.063-0.143-0.142v-0.805
			c0-0.079,0.063-0.141,0.143-0.141c0.077,0,0.141,0.062,0.141,0.141v0.805C203.568,77.149,203.505,77.212,203.428,77.212z
			 M201.826,76.879c-0.028,0-0.056-0.006-0.079-0.022c-0.065-0.045-0.083-0.131-0.039-0.198l0.445-0.67
			c0.043-0.065,0.131-0.082,0.197-0.04c0.064,0.046,0.083,0.132,0.039,0.196l-0.446,0.671
			C201.917,76.856,201.871,76.879,201.826,76.879z M203.428,75.604c-0.079,0-0.143-0.064-0.143-0.143v-0.663
			c-0.001,0.003-0.002,0.005-0.004,0.007l-0.446,0.67c-0.043,0.065-0.133,0.083-0.196,0.039c-0.065-0.042-0.083-0.131-0.04-0.196
			l0.445-0.67c0.044-0.065,0.133-0.083,0.197-0.041c0.019,0.014,0.034,0.03,0.044,0.046c0.001-0.078,0.064-0.14,0.143-0.14
			c0.077,0,0.141,0.064,0.141,0.141v0.806C203.568,75.539,203.505,75.604,203.428,75.604z"/>
	</g>
	<g>
		<path d="M195.134,86.943c-0.071,0-0.134-0.056-0.142-0.126c-0.009-0.078,0.047-0.149,0.125-0.157l0.299-0.034
			c0.079-0.011,0.148,0.046,0.157,0.125c0.009,0.077-0.048,0.147-0.125,0.155l-0.298,0.035
			C195.145,86.943,195.14,86.943,195.134,86.943z M196.231,86.815c-0.071,0-0.132-0.053-0.141-0.125
			c-0.009-0.077,0.047-0.147,0.125-0.157l0.799-0.092c0.078-0.01,0.148,0.046,0.157,0.123c0.01,0.079-0.047,0.149-0.125,0.158
			l-0.8,0.093C196.242,86.815,196.236,86.815,196.231,86.815z M197.83,86.632c-0.07,0-0.132-0.053-0.141-0.126
			c-0.009-0.078,0.047-0.149,0.124-0.157l0.8-0.093c0.078-0.011,0.148,0.049,0.157,0.125c0.011,0.079-0.046,0.147-0.125,0.158
			l-0.799,0.093C197.842,86.632,197.835,86.632,197.83,86.632z M199.43,86.447c-0.071,0-0.134-0.055-0.142-0.127
			c-0.009-0.077,0.047-0.147,0.125-0.156l0.799-0.093c0.08-0.01,0.149,0.047,0.158,0.125c0.009,0.077-0.048,0.148-0.125,0.158
			l-0.8,0.091C199.44,86.447,199.436,86.447,199.43,86.447z M201.028,86.264c-0.071,0-0.133-0.054-0.141-0.127
			c-0.009-0.077,0.046-0.148,0.125-0.156l0.8-0.092c0.078-0.012,0.147,0.046,0.156,0.125c0.009,0.076-0.046,0.146-0.124,0.155
			l-0.8,0.093C201.039,86.262,201.034,86.264,201.028,86.264z M202.628,86.077c-0.071,0-0.133-0.052-0.142-0.125
			c-0.009-0.079,0.048-0.147,0.125-0.157l0.8-0.091c0.08-0.01,0.148,0.046,0.156,0.123c0.01,0.079-0.046,0.149-0.124,0.157
			l-0.799,0.093C202.639,86.077,202.633,86.077,202.628,86.077z"/>
	</g>
</g>
<g>
	<g>
		<path d="M172.862,92.104c-0.024,0-0.049-0.009-0.069-0.022l-11.271-7.801c-0.038-0.027-0.06-0.074-0.05-0.123
			c0.009-0.047,0.045-0.083,0.091-0.095l19.019-4.589c0.048-0.012,0.099,0.007,0.127,0.047c0.027,0.041,0.029,0.093,0.004,0.136
			l-7.747,12.391c-0.018,0.026-0.046,0.046-0.078,0.053C172.878,92.102,172.87,92.104,172.862,92.104z M161.882,84.234l10.944,7.575
			l7.523-12.03L161.882,84.234z"/>
	</g>
	<g>
		<g>
			<path d="M180.356,79.944c-0.033,0-0.066-0.014-0.089-0.04c-0.047-0.048-0.044-0.125,0.007-0.17l0.253-0.232
				c0.049-0.046,0.126-0.042,0.171,0.006c0.045,0.052,0.042,0.127-0.007,0.173l-0.254,0.231
				C180.414,79.935,180.386,79.944,180.356,79.944z"/>
		</g>
		<g>
			<path d="M174.22,85.574c-0.033,0-0.066-0.013-0.09-0.038c-0.046-0.051-0.042-0.127,0.008-0.173l0.511-0.468
				c0.049-0.046,0.126-0.042,0.172,0.008c0.045,0.049,0.042,0.125-0.009,0.17l-0.51,0.469
				C174.277,85.563,174.248,85.574,174.22,85.574z M175.242,84.636c-0.033,0-0.065-0.014-0.089-0.04
				c-0.046-0.048-0.043-0.125,0.007-0.17l0.512-0.469c0.049-0.046,0.126-0.042,0.17,0.006c0.046,0.052,0.043,0.128-0.007,0.173
				l-0.512,0.468C175.301,84.626,175.271,84.636,175.242,84.636z M176.265,83.698c-0.032,0-0.065-0.014-0.089-0.04
				c-0.046-0.048-0.043-0.125,0.008-0.172l0.511-0.469c0.049-0.044,0.127-0.04,0.171,0.008c0.046,0.048,0.043,0.125-0.008,0.172
				l-0.511,0.469C176.323,83.687,176.294,83.698,176.265,83.698z M177.287,82.758c-0.032,0-0.064-0.012-0.089-0.038
				c-0.045-0.048-0.042-0.125,0.007-0.172l0.512-0.469c0.049-0.044,0.127-0.042,0.171,0.009c0.045,0.048,0.042,0.125-0.007,0.172
				l-0.512,0.469C177.347,82.748,177.317,82.758,177.287,82.758z M178.311,81.82c-0.032,0-0.066-0.012-0.09-0.038
				c-0.045-0.05-0.042-0.127,0.008-0.172l0.511-0.469c0.051-0.044,0.127-0.042,0.173,0.008c0.044,0.048,0.041,0.125-0.008,0.171
				l-0.512,0.468C178.369,81.811,178.339,81.82,178.311,81.82z M179.333,80.883c-0.032,0-0.065-0.015-0.089-0.038
				c-0.045-0.051-0.042-0.128,0.007-0.173l0.512-0.468c0.049-0.046,0.126-0.042,0.172,0.006c0.044,0.05,0.041,0.127-0.008,0.172
				l-0.512,0.469C179.392,80.872,179.362,80.883,179.333,80.883z"/>
		</g>
		<g>
			<path d="M173.454,86.275c-0.007,0-0.014,0-0.02-0.002l-0.339-0.056c-0.066-0.011-0.11-0.073-0.1-0.139s0.074-0.113,0.14-0.101
				l0.281,0.047l0.209-0.192c0.049-0.044,0.125-0.042,0.171,0.008c0.045,0.05,0.042,0.125-0.007,0.171l-0.253,0.231
				C173.514,86.266,173.484,86.275,173.454,86.275z"/>
		</g>
		<g>
			<path d="M172.458,86.11c-0.006,0-0.014,0-0.021-0.002l-0.658-0.109c-0.065-0.011-0.11-0.073-0.1-0.14
				c0.013-0.066,0.073-0.111,0.141-0.1l0.657,0.109c0.066,0.01,0.11,0.073,0.1,0.141C172.567,86.067,172.516,86.11,172.458,86.11z
				 M171.142,85.893c-0.007,0-0.013,0-0.021-0.002l-0.657-0.11c-0.066-0.012-0.11-0.074-0.101-0.14
				c0.012-0.066,0.074-0.11,0.141-0.101l0.657,0.111c0.066,0.01,0.11,0.072,0.1,0.14C171.252,85.85,171.2,85.893,171.142,85.893z
				 M169.826,85.671c-0.007,0-0.014,0-0.021-0.002l-0.657-0.109c-0.066-0.01-0.111-0.071-0.1-0.139
				c0.011-0.065,0.073-0.111,0.139-0.1l0.658,0.109c0.066,0.012,0.111,0.073,0.101,0.14
				C169.936,85.631,169.884,85.671,169.826,85.671z M168.51,85.453c-0.007,0-0.013,0-0.02-0.002l-0.659-0.109
				c-0.065-0.012-0.111-0.072-0.099-0.14c0.011-0.066,0.073-0.11,0.139-0.099l0.658,0.109c0.066,0.01,0.11,0.072,0.1,0.139
				C168.619,85.411,168.568,85.453,168.51,85.453z M167.193,85.234c-0.007,0-0.013-0.002-0.02-0.002l-0.658-0.109
				c-0.066-0.012-0.11-0.074-0.1-0.139c0.011-0.067,0.074-0.111,0.139-0.102l0.659,0.111c0.065,0.01,0.111,0.073,0.099,0.138
				C167.303,85.192,167.252,85.234,167.193,85.234z M165.877,85.015c-0.006,0-0.013,0-0.019-0.002l-0.658-0.109
				c-0.066-0.01-0.111-0.073-0.101-0.14c0.011-0.064,0.073-0.11,0.141-0.099l0.657,0.109c0.066,0.01,0.111,0.073,0.1,0.139
				C165.987,84.975,165.936,85.015,165.877,85.015z M164.562,84.796c-0.007,0-0.014,0-0.02-0.002l-0.657-0.109
				c-0.067-0.012-0.111-0.072-0.101-0.139c0.011-0.067,0.072-0.111,0.14-0.099l0.657,0.108c0.066,0.011,0.11,0.072,0.1,0.14
				C164.671,84.754,164.62,84.796,164.562,84.796z M163.245,84.576c-0.006,0-0.014,0-0.021,0l-0.657-0.109
				c-0.066-0.012-0.11-0.075-0.1-0.139c0.012-0.067,0.073-0.112,0.14-0.102l0.658,0.109c0.065,0.012,0.11,0.074,0.1,0.139
				C163.356,84.536,163.304,84.576,163.245,84.576z"/>
		</g>
		<g>
			<path d="M161.93,84.357c-0.006,0-0.013,0-0.021-0.002l-0.339-0.057c-0.065-0.01-0.11-0.072-0.101-0.14
				c0.013-0.064,0.074-0.11,0.141-0.099l0.339,0.057c0.066,0.011,0.11,0.072,0.1,0.14C162.04,84.314,161.987,84.357,161.93,84.357z"
				/>
		</g>
	</g>
	<g>
		<path d="M172.862,92.104c-0.004,0-0.008,0-0.013-0.002c-0.066-0.007-0.114-0.064-0.107-0.132l0.068-0.686
			c0.007-0.065,0.065-0.113,0.134-0.106c0.065,0.006,0.115,0.066,0.107,0.132l-0.068,0.685
			C172.977,92.057,172.923,92.104,172.862,92.104z M173.001,90.734c-0.004,0-0.008,0-0.012,0c-0.067-0.006-0.115-0.066-0.108-0.133
			l0.069-0.684c0.007-0.066,0.064-0.113,0.133-0.109c0.067,0.009,0.115,0.067,0.108,0.134l-0.07,0.684
			C173.115,90.688,173.063,90.734,173.001,90.734z M173.141,89.368c-0.005,0-0.01,0-0.014-0.002
			c-0.065-0.006-0.114-0.064-0.107-0.131l0.069-0.686c0.008-0.067,0.064-0.111,0.134-0.107c0.065,0.006,0.114,0.067,0.107,0.134
			l-0.068,0.684C173.255,89.321,173.201,89.368,173.141,89.368z M173.279,88c-0.004,0-0.008,0-0.012,0
			c-0.067-0.006-0.115-0.066-0.108-0.133l0.069-0.684c0.006-0.067,0.063-0.113,0.133-0.109c0.066,0.008,0.115,0.067,0.108,0.133
			l-0.07,0.684C173.394,87.953,173.341,88,173.279,88z M173.419,86.634c-0.004,0-0.009,0-0.014-0.002
			c-0.065-0.006-0.115-0.065-0.107-0.132l0.036-0.357c0.007-0.067,0.063-0.113,0.134-0.109c0.066,0.008,0.114,0.067,0.108,0.133
			l-0.037,0.358C173.532,86.587,173.479,86.634,173.419,86.634z"/>
	</g>
</g>
<g>
</g>
<g>
</g>
<g>
</g>
<g>
</g>
<g>
</g>
<g>
</g>
</svg>
